<svg xmlns="http://www.w3.org/2000/svg" viewBox="0 0 260 54" role="img" aria-label="Google Cloud logo">
  <path d="M43.4 20.1h-2.1l-.7-2c-2.3-6.7-8.6-11.2-15.7-11.2-9.2 0-16.7 7.5-16.7 16.7 0 .7.1 1.5.2 2.2l.3 2.1-1.8.9C2.7 30.8 0 35.1 0 39.8 0 47.6 6.4 54 14.2 54h29.2c9.4 0 17-7.6 17-17s-7.6-16.9-17-16.9z" fill="#fff"/>
  <path d="M43.4 54H30.5l6.4-11.1h6.5c3.2 0 5.9-2.6 5.9-5.9s-2.6-5.9-5.9-5.9h-4.5l-1.7-4.2c-1.9-5-6.7-8.4-12.1-8.4-4.2 0-7.9 2-10.3 5.1L8.4 13.3C12.5 8.2 18.7 5 25.1 5c9 0 17 5.5 20.2 13.8C54 19.8 61 27.5 61 37c0 9.4-7.6 17-17.6 17z" fill="#4285f4"/>
  <path d="M14.2 54C6.4 54 0 47.6 0 39.8c0-5.3 2.9-10.1 7.5-12.6l8.2 8.2c-2.5.1-4.6 2.1-4.6 4.5s2.1 4.7 4.7 4.7h14.7V54z" fill="#34a853"/>
  <path d="M7.5 27.2C6.8 25 6.7 23.8 6.7 22.7 6.7 13.8 14 6.5 22.9 6.5c6.9 0 13 4.4 15.3 10.9l-9.5 5.5c-1.1-3.1-4-5.3-7.5-5.3-4.4 0-8 3.6-8 8 0 1 .2 1.9.5 2.8z" fill="#fbbc05"/>
  <path d="M15.7 35.4 7.5 27.2c1.9-4.5 5.4-8.1 9.8-10l5.6 9.6c-3.1 1-5.5 4.1-7.2 8.6z" fill="#ea4335"/>
  <text x="78" y="35" fill="#5f6368" font-family="Arial, Helvetica, sans-serif" font-size="27" font-weight="600">Google Cloud</text>
</svg>
